<?xml version="1.0" ?><!-- Uploaded to: SVG Repo, www.svgrepo.com, Generator: SVG Repo Mixer Tools -->
<svg width="800px" height="800px" viewBox="0 0 100 100" data-name="Layer 1" id="Layer_1" xmlns="http://www.w3.org/2000/svg"><defs><style>.cls-1{fill:#1d1d1b;}</style></defs><path class="cls-1" d="M97.23,53,80.61,52.9V47.78a6.65,6.65,0,0,1,1.33-3.61,6.87,6.87,0,0,1,1.85-1.71H97.23a.49.49,0,0,0,.4-.21.48.48,0,0,0,.07-.45,15.18,15.18,0,0,0-7.53-8.75,15.89,15.89,0,0,0-6.7-1.66,9,9,0,0,0-6.17,2.27,64.32,64.32,0,0,1-6.67,5,65.58,65.58,0,0,1-6.77,3.89L8.74,42.49h0A6.55,6.55,0,0,0,4.06,44.4a6,6,0,0,0-1.79,4.25V51a6.32,6.32,0,0,0,6.45,6.16l55.48.09,15.62,11.3a.48.48,0,0,0,.29.1.49.49,0,0,0,.23-.06.51.51,0,0,0,.27-.44v-3.5a17.77,17.77,0,0,0,2.77.21A15,15,0,0,0,93.56,61.2a13.64,13.64,0,0,0,4.16-7.57.48.48,0,0,0-.11-.41A.49.49,0,0,0,97.23,53ZM79.61,47.75V67.14l-15-10.83a.52.52,0,0,0-.29-.09L8.72,56.13A5.32,5.32,0,0,1,3.27,51V48.65a5,5,0,0,1,1.5-3.54,5.52,5.52,0,0,1,4-1.62h0L64,43.58h0a.43.43,0,0,0,.22-.06,63.45,63.45,0,0,0,7-4A63.84,63.84,0,0,0,78,34.41a8,8,0,0,1,5.49-2A14.75,14.75,0,0,1,89.72,34a14.14,14.14,0,0,1,6.8,7.51H83.65a.48.48,0,0,0-.26.07,8,8,0,0,0-2.26,2A7.8,7.8,0,0,0,79.61,47.75ZM92.89,60.46c-4.6,4.18-10.81,3.41-12.28,3.15V53.9l16,.14A12.57,12.57,0,0,1,92.89,60.46Z"/><path class="cls-1" d="M69.73,48a4.76,4.76,0,0,0-4.45-2.79H17.88a4.78,4.78,0,1,0,0,9.55h47.4a4.75,4.75,0,0,0,4.23-2.39,5.16,5.16,0,0,0,.57-3.11A5,5,0,0,0,69.73,48Zm-1.1,3.9a3.75,3.75,0,0,1-3.35,1.86H17.88a3.78,3.78,0,1,1,0-7.55h47.4a3.81,3.81,0,0,1,3.53,2.18,3.92,3.92,0,0,1,.28,1A4.25,4.25,0,0,1,68.63,51.91Z"/><path class="cls-1" d="M8.11,45.22c-2.35,0-4.26,2.26-4.26,5s1.91,5,4.26,5,4.26-2.26,4.26-5S10.46,45.22,8.11,45.22Zm0,9.08c-1.8,0-3.26-1.81-3.26-4s1.46-4,3.26-4,3.26,1.82,3.26,4S9.91,54.3,8.11,54.3Z"/><path class="cls-1" d="M77.4,43.49H70.76a.5.5,0,0,0-.5.5V55.2a.5.5,0,0,0,.5.5H77.4a.5.5,0,0,0,.5-.5V44A.5.5,0,0,0,77.4,43.49Zm-.5,1v.73H71.26v-.73ZM71.26,51v-.94H76.9V51Zm5.64,1V53H71.26V52Zm-5.64-2.94v-.93H76.9v.93Zm0-1.93v-.94H76.9v.94Zm0,7.54V54H76.9v.74Z"/></svg>