<?xml version="1.0" ?><!-- Uploaded to: SVG Repo, www.svgrepo.com, Generator: SVG Repo Mixer Tools -->
<svg width="800px" height="800px" viewBox="0 0 100 100" data-name="Layer 1" id="Layer_1" xmlns="http://www.w3.org/2000/svg"><defs><style>.cls-1{fill:#1d1d1b;}</style></defs><path class="cls-1" d="M98.31,50l1-.28L99,48.59h0V32.85H31.56l-.51,1.74-.56-3a3,3,0,0,0-2.95-2.46H3.64A2.91,2.91,0,0,0,.73,32.09v.15a3,3,0,0,0,.54,1.7H1.22l.36.35.11.13.41.38a17,17,0,0,1,5.07,9.61c1,6.61-2.45,11.74-4.71,14.3h0l-.14.15c-.28.31-.53.57-.74.78a2.85,2.85,0,0,0-.84,2v.17a2.91,2.91,0,0,0,2.89,2.92l19,.1,3.09,4.47.81-.23.5,1.72,1-.28-.5-1.72,1.79-.5L29.71,70l1-.27-.49-1.7,1.79-.5.49,1.67,1-.28-.49-1.66,1.79-.51.48,1.65,1-.28-.48-1.64L37.47,66l.47,1.63,1-.28-.47-1.62,1.79-.51.47,1.6,1-.28-.47-1.59L43,64.43,43.43,66l1-.28-.46-1.57,1.79-.51.46,1.56,1-.28-.45-1.55,1.78-.51.45,1.54,1-.28-.44-1.53,1.79-.51.43,1.51,1-.28-.43-1.5L54,61.31l.43,1.49,1-.28L54.94,61l1.79-.51L57.15,62l1-.28-.42-1.46,1.79-.51.42,1.45,1-.28-.42-1.44L62.23,59l.41,1.42,1-.28-.41-1.41L65,58.2l.4,1.39,1-.28-.41-1.39,1.79-.5.4,1.37,1-.28-.4-1.37,1.79-.5L70.87,58l1-.28-.39-1.35,1.79-.5.39,1.32,1-.28-.39-1.32,1.79-.5.38,1.3,1-.28L77,54.81l1.78-.51.37,1.28,1-.28L79.7,54l1.78-.51.37,1.25,1-.27-.36-1.25,1.79-.51L84.59,54l1-.28-.35-1.22L87,52l.35,1.21,1-.28L88,51.69l1.79-.51.34,1.19,1-.28-.34-1.18,1.79-.51.33,1.16,1-.27-.34-1.16,1.79-.51.33,1.14,1-.28-.33-1.13L98,48.84ZM8.16,44.26a17.78,17.78,0,0,0-4.53-9.32H14.9C13,37,12,42,12,46.82s1,9.81,2.9,11.89H3.77C6.11,55.84,9.14,50.73,8.16,44.26ZM13,46.82c0-7,2-11.88,3.86-11.88s3.86,4.88,3.86,11.88-2,11.89-3.86,11.89S13,53.83,13,46.82Zm-11.27,15v-.17a1.8,1.8,0,0,1,.55-1.32l.62-.65h14c3.16,0,4.86-6.64,4.86-12.89S20,33.94,16.86,33.94H2.64l-.26-.25a2,2,0,0,1-.65-1.45v-.15a1.91,1.91,0,0,1,1.91-1.92h23.9a2,2,0,0,1,2,1.64L34,55.23,22.68,63.87h-.25l-18.8-.1A1.91,1.91,0,0,1,1.73,61.85ZM95.92,48.39l-.56-1.93-1,.28L95,48.66l-1.79.51-.55-1.9-1,.28.55,1.89L90.42,50l-.55-1.88-1,.28.55,1.87-1.79.51-.54-1.86-1,.28L86.71,51l-1.79.51-.53-1.84-1,.28L84,51.78l-1.79.51-.53-1.81-1,.28.53,1.8-1.79.51-.52-1.79-1,.28.51,1.78-1.78.51-.51-1.77-1,.28.51,1.76-1.78.5-.51-1.74-1,.28L73,54.9l-1.79.5-.49-1.71-1,.28.49,1.71-1.79.5-.49-1.69-1,.28.49,1.69-1.79.5-.48-1.67-1,.28.48,1.66-1.79.51-.48-1.65-1,.28L62,58l-1.79.51-.47-1.62-1,.28.47,1.61-1.79.51L57,57.7,56,58l.46,1.59-1.79.51L54.2,58.5l-1,.28.46,1.57-1.79.51-.45-1.55-1,.27L51,61.13l-1.79.51-.45-1.53-1,.28.45,1.52-1.79.51L46,60.91l-1,.28.43,1.5-1.78.51-.43-1.49-1,.28.42,1.48L40.9,64l-.42-1.45-1,.27.42,1.46-1.79.5-.41-1.43-1,.28L37.19,65l-1.79.5L35,64.12l-1,.28.41,1.41-1.79.5-.4-1.39-1,.28.4,1.38-1.79.51-.39-1.36-1,.28.39,1.35-1.79.51-.39-1.34-1,.28.39,1.33-.12,0-2.55-3.7,11.31-8.67.37-.4L35,55.16,31.46,36.75l.85-2.9H98V45.7l-.81.24.56,1.94Z"/><path class="cls-1" d="M70.19,34.79H61.31a.51.51,0,0,0-.47.34l-7,20.55a.49.49,0,0,0,.1.49.52.52,0,0,0,.38.17l.11,0L64.65,54a.5.5,0,0,0,.36-.34l5.65-18.17a.52.52,0,0,0-.07-.45A.49.49,0,0,0,70.19,34.79ZM64.14,53l-9.07,2.11,6.6-19.36h7.84Z"/><path class="cls-1" d="M59.16,35a.51.51,0,0,0-.41-.21H55.91a.5.5,0,0,0-.47.33L47.5,56.84a.5.5,0,0,0,.09.51.52.52,0,0,0,.38.17l.12,0,3.92-1a.53.53,0,0,0,.35-.33l6.87-20.76A.51.51,0,0,0,59.16,35ZM51.5,55.63l-2.74.68,7.5-20.52h1.8Z"/></svg>