<?xml version="1.0" ?><!-- Uploaded to: SVG Repo, www.svgrepo.com, Generator: SVG Repo Mixer Tools -->
<svg width="800px" height="800px" viewBox="0 0 100 100" data-name="Layer 1" id="Layer_1" xmlns="http://www.w3.org/2000/svg"><defs><style>.cls-1{fill:#1d1d1b;}</style></defs><path class="cls-1" d="M75.21,59.24a9.62,9.62,0,0,1-3.47-3.05,8.42,8.42,0,0,1-1.36-6,.5.5,0,0,0-.2-.48.49.49,0,0,0-.52,0l-.38.19V15.6l4.3-2.18a.5.5,0,0,0,.27-.45V1.58a.5.5,0,0,0-.5-.5H66.19a.5.5,0,0,0-.47.31l-.36.89H54.13l-.44-.92a.51.51,0,0,0-.45-.28H33.12a.47.47,0,0,0-.26.08h0L29.08,3.46A3.22,3.22,0,0,0,27.77,5H25a.5.5,0,0,0-.5.5V8.1a.5.5,0,0,0,.5.5h2.74a3.2,3.2,0,0,0,1.31,1.56l3.56,2.17a.48.48,0,0,0,.48.42h5.1l.09,0,4,3.06.12,34-.22-.11a.49.49,0,0,0-.52,0,.5.5,0,0,0-.2.48,8.42,8.42,0,0,1-1.36,6,9.71,9.71,0,0,1-3.47,3.05.5.5,0,0,0-.25.54.49.49,0,0,0,.43.4,5.84,5.84,0,0,1,5,3.38,4.59,4.59,0,0,1-.29,3.62A39.23,39.23,0,0,0,41.46,93l-2.9,5.19a.5.5,0,0,0,.44.74H51.71a.5.5,0,0,0,.5-.5V59.27a.5.5,0,0,0-.25-.44l-.88-.48.23-18.12L59.17,31a.53.53,0,0,0,.12-.32v-.8H61V58.25l-1.06.58a.51.51,0,0,0-.26.44V98.42a.5.5,0,0,0,.5.5H72.89a.5.5,0,0,0,.43-.24.52.52,0,0,0,0-.5L70.43,93a39.14,39.14,0,0,0-.1-25.87,4.5,4.5,0,0,1-.27-3.56,5.86,5.86,0,0,1,5-3.38.5.5,0,0,0,.43-.4A.51.51,0,0,0,75.21,59.24ZM25.53,7.6V6h2s0,.06,0,.1v1.4s0,.06,0,.09Zm41-5.52h6.33V12.66L62,18.17V13.28ZM61.06,12.9H59.24v0L56.55,7.31h6.78ZM65,3.28l-1.23,3H56.07l-1.46-3ZM28.53,7.51V6.11a2.12,2.12,0,0,1,1.08-1.8l3-1.84v8.68l-3-1.84A2.12,2.12,0,0,1,28.53,7.51ZM51.21,97.92H39.85l2.59-4.64a.53.53,0,0,0,0-.41,38.09,38.09,0,0,1,0-25.3,5.49,5.49,0,0,0,.31-4.36,6.51,6.51,0,0,0-4.48-3.77A10.71,10.71,0,0,0,41,56.76,9.4,9.4,0,0,0,42.59,51l2.27,1.12v3.63a.5.5,0,0,0,.25.44l6.1,3.37ZM45.86,55.45V51.81a.51.51,0,0,0-.28-.45l-2.13-1,0-9.65H50.3L50.09,57.8Zm12.43-25-7.81,9.2H43.41L43.33,15.6a.49.49,0,0,0-.19-.39L40,12.81H55.66a.5.5,0,0,0,0-1h-17a.58.58,0,0,0-.17-.06H33.62V2.08h19.3l5.37,11.13Zm1-1.62V13.9H61V28.84ZM62,19.29l6.29-3.19V50.39l-2,1a.51.51,0,0,0-.28.45v3.64l-4,2.24Zm7.14,43.92a5.47,5.47,0,0,0,.28,4.3,38.18,38.18,0,0,1,0,25.36.53.53,0,0,0,0,.41L72,97.92H60.67V59.56l6.1-3.37a.51.51,0,0,0,.26-.44V52.12L69.3,51a9.33,9.33,0,0,0,1.62,5.76,10.54,10.54,0,0,0,2.69,2.68A6.51,6.51,0,0,0,69.13,63.21Z"/></svg>