<?xml version="1.0" ?><!-- Uploaded to: SVG Repo, www.svgrepo.com, Generator: SVG Repo Mixer Tools -->
<svg width="800px" height="800px" viewBox="0 0 100 100" data-name="Layer 1" id="Layer_1" xmlns="http://www.w3.org/2000/svg"><defs><style>.cls-1{fill:#1d1d1b;}</style></defs><path class="cls-1" d="M82.4,1.93H73.15V1.28h-3.7V11.82H71a1.93,1.93,0,0,0,1.88,1.71h2a.92.92,0,0,1,.64.26,1,1,0,0,1,.28.72l0,1h-.33v-.66h-1v.66H73.18v-.66h-1v.66H70.88v-.66h-1v.66H68.58v-.66h-1v.66H66.28v-.66h-1v.66H64v-.66H63v.66H61.67v-.66h-1v.66H59.37v-.66h-1v.66H57.07v-.66h-1v.66H54.77v-.66h-1v.66H52.73V12.74c0-.05,0-.08.06-.08h3.35a.5.5,0,0,0,.5-.5v-.34h2.7V1.28H55.65v.65H44.75A7.92,7.92,0,0,0,37,10v6.29c0,.05,0,.08-.06.08H13.21a4.52,4.52,0,0,0-4.44,4.58A1.05,1.05,0,0,0,9.82,22H23.38v5.71a2,2,0,0,0,1.9,2.05A28.74,28.74,0,0,1,32,30.88c3.11.93,5.79,1.73,7.61,4.27a9.38,9.38,0,0,1,1.51,3.44H39.5a.49.49,0,0,0-.49.5v4.47L36,48a.54.54,0,0,0-.08.28v2.21a.49.49,0,0,0,.49.49H68.85V66.5a5.2,5.2,0,0,1-5.09,5.29H62.35v-1.1a1.83,1.83,0,0,0-1.83-1.82H58V65.81l.73-.32a.5.5,0,0,0,.25-.65.51.51,0,0,0-.66-.25l-.32.14V62.24l.73-.32a.49.49,0,1,0-.41-.9l-.32.14V60h5.24a.5.5,0,0,0,.5-.49V57.39a.5.5,0,0,0-.5-.49H46.89a.49.49,0,0,0-.49.49v2.12a.49.49,0,0,0,.49.49h4.85v4l-.73.33a.49.49,0,0,0-.25.65.52.52,0,0,0,.46.29.53.53,0,0,0,.2,0l.32-.14v2.49l-.73.33a.49.49,0,0,0-.25.65.52.52,0,0,0,.46.29.53.53,0,0,0,.2,0l.32-.14v.26H49.6a1.83,1.83,0,0,0-1.83,1.82v10a1.83,1.83,0,0,0,1.83,1.82h2.14v1.66l-.73.33a.49.49,0,0,0-.25.65.52.52,0,0,0,.46.29.51.51,0,0,0,.2,0l.32-.15v2.5l-.73.32a.49.49,0,0,0-.25.65.5.5,0,0,0,.46.29.51.51,0,0,0,.2,0l.32-.15v2.5l-.73.32a.49.49,0,0,0,.21.94.51.51,0,0,0,.2,0l.32-.14v2.49l-.73.32a.49.49,0,0,0,.21.94.51.51,0,0,0,.2,0l.32-.14v0a2.57,2.57,0,0,0,1.67,2.46,4.25,4.25,0,0,0,1.45.25H55a4.11,4.11,0,0,0,1.25-.22A2.6,2.6,0,0,0,58,96V93.19l.73-.33A.49.49,0,1,0,58.3,92l-.32.14V89.62l.73-.33a.49.49,0,0,0,.25-.65.51.51,0,0,0-.66-.25l-.32.15V86.05l.73-.33a.49.49,0,0,0,.25-.65.51.51,0,0,0-.66-.25L58,85V82.53h2.54a1.83,1.83,0,0,0,1.83-1.82v-1h7.34a9.86,9.86,0,0,0,9.68-10V48.94a.43.43,0,0,0-.06-.22l-2.66-5.13v-4.5a.5.5,0,0,0-.5-.5h-3v-4h12a6.14,6.14,0,0,0,6-6.23V11.05A9,9,0,0,0,82.4,1.93Zm-35,56H62.73V59H47.38ZM52.73,60H57v1.61l-4.26,1.91Zm0,4.6L57,62.69v2.49l-4.26,1.91Zm0,3.57L57,66.26v2.61H52.73ZM57,69.85V81.54H52.73V69.85ZM49.6,81.54a.83.83,0,0,1-.84-.83v-10a.84.84,0,0,1,.84-.84h2.14V81.54Zm3.13,1h2.73l-2.73,1.22ZM57,96a1.61,1.61,0,0,1-1.08,1.57,3.52,3.52,0,0,1-1,.17,3.56,3.56,0,0,1-1.21-.19,1.62,1.62,0,0,1-1-1.54v-.47L57,93.63Zm0-3.45-4.26,1.91V92L57,90.06ZM57,89l-4.26,1.91V88.4L57,86.49Zm-4.26-1.66V84.83L57,82.92v2.49Zm8.64-6.61a.84.84,0,0,1-.85.83H59a.06.06,0,0,1,0,0,.51.51,0,0,0-.66-.25L58,81.4V69.85h2.54a.85.85,0,0,1,.85.84Zm17-11a8.87,8.87,0,0,1-8.69,9H62.35v-6h1.41a6.18,6.18,0,0,0,6.08-6.27v-16a.49.49,0,0,0-.49-.49H36.88V48.39l2.61-3.79H76.06l2.32,4.45ZM75.66,43.62H40v-4H75.66ZM70.44,2.26h1.72v8.57H70.44Zm4.47,10.28h-2a.9.9,0,0,1-.86-.72h1.12V2.91H82.4a8,8,0,0,1,7.84,8.14V13.4H76.49a1.76,1.76,0,0,0-.24-.3A1.88,1.88,0,0,0,74.91,12.54ZM64,21H52.71a.24.24,0,0,0,0-.08v-2h1.05v.58h1v-.58h1.31v.58h1v-.58h1.32v.58h1v-.58h1.32v.58h1v-.58H63v.58h1v-.58h1.32v.58h1v-.58h1.31v.58h1v-.58h1.31v.58h1v-.58h1.31v.58h1v-.58h1.31v.58h1v-.58h.28l-.08,4.47a1,1,0,0,1-.91.95H67.16a1.64,1.64,0,0,0-.5.08v-.67A2.71,2.71,0,0,0,64,21Zm11.79-4.48,0,1.4h-.29v-1.4Zm-1.3,0v1.4H73.18v-1.4Zm-2.3,0v1.4H70.88v-1.4Zm-2.3,0v1.4H68.58v-1.4Zm-2.3,0v1.4H66.28v-1.4Zm-2.3,0v1.4H64v-1.4Zm-2.3,0v1.4H61.67v-1.4Zm-2.3,0v1.4H59.37v-1.4Zm-2.3,0v1.4H57.07v-1.4Zm-2.31,0v1.4H54.77v-1.4Zm-2.3,0v1.4H52.73v-1.4ZM56.64,2.26h1.71v8.57H56.64Zm-11.89.65h10.9v8.76H52.79a1.06,1.06,0,0,0-1,1.07v.66H38V10A6.93,6.93,0,0,1,44.75,2.91Zm-35,18a3.53,3.53,0,0,1,3.45-3.59H36.9A1.06,1.06,0,0,0,38,16.25V14.38H51.74v6.53c0,.05,0,.08-.06.08H9.82S9.76,21,9.76,20.91Zm62.4,17.68-30.09-.22a10.42,10.42,0,0,0-1.68-3.79c-2-2.82-5-3.7-8.14-4.64a30.1,30.1,0,0,0-6.92-1.19,1,1,0,0,1-1-1.07V22H51.68a1.28,1.28,0,0,0,.34-.06V22H64a1.72,1.72,0,0,1,1.67,1.75v1.34a1.93,1.93,0,0,0-.41,1.2V32.6a1.93,1.93,0,0,0,1.9,1.95h5Zm13-5h-18a.94.94,0,0,1-.92-1V26.26a1,1,0,0,1,.92-1h7.61a1.93,1.93,0,0,0,1.9-1.91l.15-8.85a.77.77,0,0,0,0-.15H90.24V28.32A5.15,5.15,0,0,1,85.19,33.56Z"/></svg>