<?xml version="1.0" ?><!-- Uploaded to: SVG Repo, www.svgrepo.com, Generator: SVG Repo Mixer Tools -->
<svg width="800px" height="800px" viewBox="0 0 100 100" data-name="Layer 1" id="Layer_1" xmlns="http://www.w3.org/2000/svg"><defs><style>.cls-1{fill:#1d1d1b;}</style></defs><path class="cls-1" d="M31.78,29.82A20.18,20.18,0,1,0,52,50,20.22,20.22,0,0,0,31.78,29.82Zm0,39.36A19.18,19.18,0,1,1,51,50,19.22,19.22,0,0,1,31.78,69.18Z"/><path class="cls-1" d="M97.85,64H60.58l.82-14a29.1,29.1,0,0,0-.84-7L62.8,31.77a2.1,2.1,0,0,0-1.42-2.41,55.83,55.83,0,0,1-8-2,56.73,56.73,0,0,1-5.92-2.4,28,28,0,0,0-4.1-2.14h0a29.3,29.3,0,0,0-11.61-2.37,29.59,29.59,0,1,0,0,59.18H54.12A5.88,5.88,0,0,0,60,74.05l.09-1.43H97.85ZM61.12,30.32a1.09,1.09,0,0,1,.7,1.25L60,40.89a29.24,29.24,0,0,0-9-13.4c.7.26,1.39.54,2.1.78A55.7,55.7,0,0,0,61.12,30.32Zm-7,48.27H31.78a28.59,28.59,0,1,1,0-57.18,28.28,28.28,0,0,1,11.16,2.26c1.31.76,2.68,1.48,4.08,2.14A28.34,28.34,0,0,1,59.56,43.12h0A28.06,28.06,0,0,1,60.4,50L59,74A4.9,4.9,0,0,1,54.12,78.59ZM60.52,65h1.56v3.29h1V65h2.66v1.4h1V65H69.4v3.29h1V65h2.65v1.4h1V65h2.66v3.29h1V65h2.65v1.4h1V65H84v3.29h1V65h2.65v1.4h1V65h2.66v3.29h1V65h.88v6.58H60.14Zm36.33,6.58H94.21V65h2.64Z"/><path class="cls-1" d="M31.77,44.49A5.51,5.51,0,1,0,37.28,50,5.51,5.51,0,0,0,31.77,44.49Zm0,10A4.51,4.51,0,1,1,36.28,50,4.52,4.52,0,0,1,31.77,54.5Z"/></svg>