<?xml version="1.0" ?><!-- Uploaded to: SVG Repo, www.svgrepo.com, Generator: SVG Repo Mixer Tools -->
<svg width="800px" height="800px" viewBox="0 0 100 100" data-name="Layer 1" id="Layer_1" xmlns="http://www.w3.org/2000/svg"><defs><style>.cls-1{fill:#1d1d1b;}</style></defs><path class="cls-1" d="M96.92,49.68a30.79,30.79,0,0,0-6.08-11.25,3.55,3.55,0,0,0-2.7-1.31H49a3.94,3.94,0,0,0-3.62,3c-.22.7-.41,1.41-.59,2.13H8.56c-3.8,0-6.89,3.71-6.89,8.27s3.09,8.27,6.89,8.27H45.15c.08.29.15.58.25.87A3.88,3.88,0,0,0,49,62.52H74.51v.32l1,0c0-.11,0-.24,0-.36H94.46A3.54,3.54,0,0,0,97,61.36a5.11,5.11,0,0,0,1.28-3.8A35.08,35.08,0,0,0,96.92,49.68ZM8.56,57.76c-3.25,0-5.89-3.26-5.89-7.27s2.64-7.27,5.89-7.27h36c-.12.59-.24,1.17-.33,1.77v-.57H10.06a6.08,6.08,0,1,0,0,12.13H44.59c.08.4.17.81.28,1.21Zm35.82-2.21H10.06a5.08,5.08,0,1,1,0-10.13H44.17a30.92,30.92,0,0,0-.31,4.91A32.4,32.4,0,0,0,44.38,55.55Zm2,3.77a30.93,30.93,0,0,1,0-18.93A3,3,0,0,1,49,38.12h7v.26C56,40.91,57.69,43,59.82,43H66.1a2.61,2.61,0,0,1,1.89.9,23.43,23.43,0,0,1,4.22,6.49,28.18,28.18,0,0,1,2.32,11.16H49A2.89,2.89,0,0,1,46.35,59.32Zm50,1.35a2.54,2.54,0,0,1-1.85.85H75.53A29.37,29.37,0,0,0,73.13,50a24.59,24.59,0,0,0-4.41-6.76A3.56,3.56,0,0,0,66.1,42H59.82C58.24,42,57,40.36,57,38.38v-.26H88.14a2.58,2.58,0,0,1,2,1A30,30,0,0,1,96,50a34.14,34.14,0,0,1,1.35,7.66A4.15,4.15,0,0,1,96.31,60.67Z"/><path class="cls-1" d="M86.6,45.18a3.26,3.26,0,0,0-2.2,0,5.69,5.69,0,0,1-2.32.17,8.45,8.45,0,0,1-4.4-2.23c-.77-.65-1.42-1.2-2-.66A2.05,2.05,0,0,0,75.17,44,17.89,17.89,0,0,0,81,55.72c1.8,1.51,4.65,3,6.93,3a3.44,3.44,0,0,0,.46,0,2.91,2.91,0,0,0,2.12-1.08c1-1.22,1.12-3.56.39-6.24C90.27,49.07,88.77,46,86.6,45.18ZM89.73,57a2,2,0,0,1-1.44.71c-2,.21-4.82-1.25-6.64-2.79a17.19,17.19,0,0,1-5.46-10.5,3.29,3.29,0,0,1,.07-1.2,6.64,6.64,0,0,1,.77.6A9.32,9.32,0,0,0,82,46.31a6.53,6.53,0,0,0,2.68-.19,2.38,2.38,0,0,1,1.6,0c1.48.58,3,2.82,3.71,5.56C90.56,54,90.48,56.08,89.73,57Z"/><path class="cls-1" d="M47.84,40.63c-1.08,0-1.92,1.32-1.92,3s.84,3,1.92,3,1.92-1.32,1.92-3S48.92,40.63,47.84,40.63Zm0,5c-.37,0-.92-.79-.92-2s.55-2,.92-2,.92.78.92,2S48.22,45.65,47.84,45.65Z"/><path class="cls-1" d="M47.84,52.5c-1.08,0-1.92,1.32-1.92,3s.84,3,1.92,3,1.92-1.32,1.92-3S48.92,52.5,47.84,52.5Zm0,5c-.37,0-.92-.78-.92-2s.55-2,.92-2,.92.78.92,2S48.22,57.51,47.84,57.51Z"/><path class="cls-1" d="M63.63,43.29H60.22a1.8,1.8,0,0,0-1.8,1.8v4.7a1.8,1.8,0,0,0,1.8,1.8h3.41a1.8,1.8,0,0,0,1.8-1.8v-4.7A1.8,1.8,0,0,0,63.63,43.29Zm.8,6.5a.8.8,0,0,1-.8.8H60.22a.8.8,0,0,1-.8-.8v-4.7a.8.8,0,0,1,.8-.8h3.41a.8.8,0,0,1,.8.8Z"/></svg>