<?xml version="1.0" ?><!-- Uploaded to: SVG Repo, www.svgrepo.com, Generator: SVG Repo Mixer Tools -->
<svg width="800px" height="800px" viewBox="0 0 100 100" data-name="Layer 1" id="Layer_1" xmlns="http://www.w3.org/2000/svg"><defs><style>.cls-1{fill:#1d1d1b;}</style></defs><path class="cls-1" d="M34.54,71.13H59.15a.5.5,0,0,0,.5-.5V63.24a.5.5,0,0,0-.5-.5H34.54a.5.5,0,0,0-.5.5v7.39A.5.5,0,0,0,34.54,71.13Zm.5-7.39H58.65v6.39H35Z"/><path class="cls-1" d="M34.54,76.53H59.15a.5.5,0,0,0,.5-.5v-3.7a.5.5,0,0,0-.5-.5H34.54a.5.5,0,0,0-.5.5V76A.5.5,0,0,0,34.54,76.53Zm.5-3.7H58.65v2.7H35Z"/><path class="cls-1" d="M97.14,60.43a5,5,0,0,0-3.24-1.11H80.11a4.07,4.07,0,0,1-3.45-1.76,5.62,5.62,0,0,1-.92-3.5,5.4,5.4,0,0,1,.78-2.39,4.26,4.26,0,0,1,3.62-2h8.52v-1H80.14a5.27,5.27,0,0,0-4.48,2.48A6.43,6.43,0,0,0,74.74,54a6.74,6.74,0,0,0,1.08,4.12,5.09,5.09,0,0,0,4.29,2.21H93.9a4,4,0,0,1,2.59.87,4.57,4.57,0,0,1,.1,6.94,4,4,0,0,1-2.71,1h-20c0-.24,0-.49,0-.74a13.8,13.8,0,0,0-11-12.18v-.1H29.66V52h5.06v-3.3H31.05V18.43h2.31v-4H21.75v4h2.31V48.67H20.39V52h5.06v2.9a16.13,16.13,0,0,0-8.22-2.24,16.48,16.48,0,0,0,0,32.95,16.25,16.25,0,0,0,10.62-4l2.65,1.2V83H62.87v-.1a14.1,14.1,0,0,0,11-12.79h20a5,5,0,0,0,3.38-1.23,5.56,5.56,0,0,0,1.87-4.47A5.63,5.63,0,0,0,97.14,60.43ZM62.87,76.57h2v-1h-2V72.38h3.67v-1H62.87V67.94h3.67v-1H62.87v-3.2h2v-1h-2V60.58a9.78,9.78,0,0,1,0,18.06ZM22.75,17.43v-2h9.61v2H22.75Zm2.31,1h5V48.67h-5ZM21.39,49.67H33.72V51H21.39ZM26.45,52h2.21v4.11H27.24c-.26-.2-.53-.4-.79-.58ZM17.23,84.58a15.48,15.48,0,0,1,0-30.95,15.12,15.12,0,0,1,8.28,2.45H21.64a8.58,8.58,0,0,0-8.55,8.59v7.69A4,4,0,0,0,15.46,76l11.37,5.12A15.25,15.25,0,0,1,17.23,84.58Zm-1.36-9.46a3,3,0,0,1-1.78-2.76V70.72a3.52,3.52,0,1,0,0-.52V64.67a7.58,7.58,0,0,1,7.55-7.59H30.5V81.72Zm-.8-4.66A2.5,2.5,0,1,1,17.57,73,2.51,2.51,0,0,1,15.07,70.46ZM61.87,82H31.5V57.08H61.87Zm1-.13V79.72a10.8,10.8,0,0,0,0-20.24V57.2a12.8,12.8,0,0,1,10,11.24A13,13,0,0,1,62.87,81.86Z"/><path class="cls-1" d="M92.47,53.9h1.8a.5.5,0,0,0,.5-.5V51.93h2.87v-1H94.77V47.61h2.87v-1H94.77V45.12a.51.51,0,0,0-.5-.5h-1.8a3.72,3.72,0,0,0-3.7,3.72v1.85A3.71,3.71,0,0,0,92.47,53.9Zm-2.7-5.56a2.71,2.71,0,0,1,2.7-2.72h1.3V52.9h-1.3a2.71,2.71,0,0,1-2.7-2.71Z"/></svg>