<?xml version="1.0" ?><!-- Uploaded to: SVG Repo, www.svgrepo.com, Generator: SVG Repo Mixer Tools -->
<svg width="800px" height="800px" viewBox="0 0 100 100" data-name="Layer 1" id="Layer_1" xmlns="http://www.w3.org/2000/svg"><defs><style>.cls-1{fill:#1d1d1b;}</style></defs><path class="cls-1" d="M82.18,3.61l0,.1-.08,0H43a.55.55,0,0,0-.54.55V4.9L33.24,8.75a.55.55,0,0,0-.34.51V34.2a.53.53,0,0,0,.34.5l9.26,3.85v2.23a.55.55,0,0,0,.54.55h8.09a9.35,9.35,0,0,1-1.87,10.14.55.55,0,0,0,.4.92H56a109.92,109.92,0,0,1,1.46,11.27,110.5,110.5,0,0,1,0,17H48.88a9.61,9.61,0,0,0-9.63,9.56v5.66a.55.55,0,0,0,.55.54H82.08a.55.55,0,0,0,.55-.54V81.18a.55.55,0,0,0-.55-.55H80.71c-.93-4.43-1.73-8.94-2.37-13.42a205,205,0,0,1-1.93-22.43l2-3.45h3.25l0,.09A19.47,19.47,0,0,0,98.19,23.71,19.36,19.36,0,0,0,82.18,3.61Zm.45,27.7h2.86V30.22H82.63V26.54h7V25.45h-7v-5h7V19.36h-7v-4.8h2.86V13.47H82.63V10a13,13,0,0,1,9.28,13.12,13,13,0,0,1-9.28,11.16ZM34,33.83V9.62L42.5,6.09V37.37Zm9.6-29h38V40.23H43.59ZM69.8,80.63l-3.6-39.3h3.51l3.6,39.3Zm-11.3-17a114.82,114.82,0,0,0-1.56-11.84.56.56,0,0,0-.54-.44H50.84a10.45,10.45,0,0,0,1.47-10H65.1l3.61,39.3H58.54A112.83,112.83,0,0,0,58.5,63.58Zm23,31.72H40.35V90.19a8.5,8.5,0,0,1,8.53-8.46H81.54ZM75.38,44.37a.59.59,0,0,0-.07.29,207.46,207.46,0,0,0,2,22.7c.63,4.43,1.42,8.89,2.34,13.27H74.41L70.8,41.33h6.32ZM97.1,23.64A18.31,18.31,0,0,1,82.63,40.11V35.4A13.88,13.88,0,0,0,93,23.2,14.11,14.11,0,0,0,82.63,8.85v-4A18.25,18.25,0,0,1,97.1,23.64Z"/><path class="cls-1" d="M29.68,9.35H16.45a.58.58,0,0,0-.29.09L3.38,17.82a3.52,3.52,0,0,0-1.61,3v2.09a3.57,3.57,0,0,0,1.54,2.92l12.83,8.88a.59.59,0,0,0,.31.09H29.68a.54.54,0,0,0,.55-.54V9.9A.55.55,0,0,0,29.68,9.35Zm-.54,24.32H16.62L3.92,24.89a2.48,2.48,0,0,1-1.06-2V20.78A2.45,2.45,0,0,1,4,18.73l12.64-8.28H29.14Z"/><path class="cls-1" d="M79.51,30V21a.54.54,0,0,0-.54-.55H47.45a.54.54,0,0,0-.54.55v9a.55.55,0,0,0,.54.55H79A.55.55,0,0,0,79.51,30Zm-1.09-.54H48V21.51H78.42Z"/><path class="cls-1" d="M47.45,18.4H79a.54.54,0,0,0,.54-.54V13.35a.54.54,0,0,0-.54-.54H47.45a.54.54,0,0,0-.54.54v4.51A.54.54,0,0,0,47.45,18.4ZM48,13.9H78.42v3.41H48Z"/><path class="cls-1" d="M44.38,87.16V93a.54.54,0,0,0,.54.55H80.27a.54.54,0,0,0,.54-.55V87.16a.54.54,0,0,0-.54-.54H44.92A.54.54,0,0,0,44.38,87.16Zm1.09.55H79.72v4.7H45.47Z"/></svg>