<?xml version="1.0" ?><!-- Uploaded to: SVG Repo, www.svgrepo.com, Generator: SVG Repo Mixer Tools -->
<svg width="800px" height="800px" viewBox="0 0 100 100" data-name="Layer 1" id="Layer_1" xmlns="http://www.w3.org/2000/svg"><defs><style>.cls-1{fill:#1d1d1b;}</style></defs><path class="cls-1" d="M57.82,75.89c-1.42-3-2.76-5.75-2.87-9.6a20.83,20.83,0,0,1,3.32-11.43.49.49,0,0,0,0-.51.5.5,0,0,0-.43-.25H52.44V18a23.66,23.66,0,0,0,2-8.14A23.29,23.29,0,0,0,53.65,2a.52.52,0,0,0-.49-.36h-5.6a.51.51,0,0,0-.49.36,23.27,23.27,0,0,0-.83,7.82,23.91,23.91,0,0,0,2,8.14V54.1H42.15a.5.5,0,0,0-.43.25.49.49,0,0,0,0,.51,20.83,20.83,0,0,1,3.32,11.43c-.11,3.85-1.45,6.64-2.87,9.6-1.49,3.11-3,6.32-3,10.81a20.83,20.83,0,0,0,1.62,7.72,5.66,5.66,0,0,0,3.76,3.15,19.89,19.89,0,0,0,5.43.76h.09a19.66,19.66,0,0,0,5.35-.77,5.63,5.63,0,0,0,3.75-3.14,20.83,20.83,0,0,0,1.62-7.72C60.85,82.21,59.31,79,57.82,75.89ZM47.94,2.67h4.84c.19.7.32,1.41.44,2.11H47.5A19.79,19.79,0,0,1,47.94,2.67Zm1.29,15a23,23,0,0,1-2-7.9,22.3,22.3,0,0,1,.12-4h6a23.26,23.26,0,0,1,.12,4,22.78,22.78,0,0,1-2,7.9.65.65,0,0,0,0,.2V54.1H49.28V17.88A.46.46,0,0,0,49.23,17.68Zm9,76.36a4.66,4.66,0,0,1-3.11,2.56,18.46,18.46,0,0,1-5.08.73,19.37,19.37,0,0,1-5.23-.73A4.64,4.64,0,0,1,41.73,94a19.8,19.8,0,0,1-1.54-7.34c0-4.25,1.38-7.23,2.89-10.37,1.4-2.92,2.85-5.94,3-10A21.32,21.32,0,0,0,43,55.1H57a21.32,21.32,0,0,0-3,11.22c.12,4.06,1.57,7.08,3,10,1.51,3.14,2.93,6.12,2.89,10.37A19.89,19.89,0,0,1,58.27,94Z"/><path class="cls-1" d="M46.82,80.34H45.35a2.43,2.43,0,0,0-2.58,2.23v9.19A2.43,2.43,0,0,0,45.35,94h1.47a2.43,2.43,0,0,0,2.58-2.23V82.57A2.43,2.43,0,0,0,46.82,80.34ZM48.4,91.76A1.44,1.44,0,0,1,46.82,93H45.35a1.44,1.44,0,0,1-1.58-1.23V82.57a1.44,1.44,0,0,1,1.58-1.23h1.47a1.44,1.44,0,0,1,1.58,1.23Z"/><path class="cls-1" d="M54.86,80.34H53.39a2.43,2.43,0,0,0-2.58,2.23v9.19A2.43,2.43,0,0,0,53.39,94h1.47a2.43,2.43,0,0,0,2.58-2.23V82.57A2.43,2.43,0,0,0,54.86,80.34Zm1.58,11.42A1.44,1.44,0,0,1,54.86,93H53.39a1.44,1.44,0,0,1-1.58-1.23V82.57a1.44,1.44,0,0,1,1.58-1.23h1.47a1.44,1.44,0,0,1,1.58,1.23Z"/><path class="cls-1" d="M50.46,59.78l-.15-.2h-.62l-.15.2a14,14,0,0,0,0,16.73l.15.21h.62l.15-.21a14,14,0,0,0,0-16.73ZM50,60.87a13.72,13.72,0,0,1,2,4.65H48A13.72,13.72,0,0,1,50,60.87Zm-2.23,6.88a12.24,12.24,0,0,1,.1-1.23h4.26a12.24,12.24,0,0,1,.1,1.23Zm4.45,1c0,.43-.06.84-.12,1.23H47.9c-.06-.39-.09-.8-.12-1.23ZM50,75.42A13.47,13.47,0,0,1,48.09,71h3.82A13.47,13.47,0,0,1,50,75.42Z"/></svg>