<?xml version="1.0" ?><!-- Uploaded to: SVG Repo, www.svgrepo.com, Generator: SVG Repo Mixer Tools -->
<svg width="800px" height="800px" viewBox="0 0 100 100" data-name="Layer 1" id="Layer_1" xmlns="http://www.w3.org/2000/svg"><defs><style>.cls-1{fill:#1d1d1b;}</style></defs><path class="cls-1" d="M61.15,59.65a21.77,21.77,0,0,0-10.22-3.48.41.41,0,0,0-.38.13.48.48,0,0,0-.16.36V68.59a.5.5,0,0,0,.5.5H68.53a.5.5,0,0,0,.43-.24.48.48,0,0,0,0-.49A23.2,23.2,0,0,0,61.15,59.65Zm-9.76,8.44V57.21a20.84,20.84,0,0,1,9.21,3.28,22.2,22.2,0,0,1,7.09,7.6Z"/><path class="cls-1" d="M42.31,57.38a5.86,5.86,0,1,0,5.6,5.86A5.74,5.74,0,0,0,42.31,57.38Zm0,10.71a4.86,4.86,0,1,1,4.6-4.85A4.74,4.74,0,0,1,42.31,68.09Z"/><path class="cls-1" d="M28.57,57.38a5.86,5.86,0,1,0,5.61,5.86A5.74,5.74,0,0,0,28.57,57.38Zm0,10.71a4.86,4.86,0,1,1,4.61-4.85A4.74,4.74,0,0,1,28.57,68.09Z"/><path class="cls-1" d="M96.81,53.31a6.35,6.35,0,0,0-.19-8.81L96.07,44a5.92,5.92,0,0,0-2.21-1.34,35.36,35.36,0,0,1-14.35-9,36.34,36.34,0,0,1-6.29-8.9,6.5,6.5,0,0,0-1.16-1.62l-.46-.46a5.68,5.68,0,0,0-6.7-1.05,194.27,194.27,0,0,0-20.68,12.7,197.75,197.75,0,0,0-20.95,17,5.7,5.7,0,0,0-3.72,1.58l-3.18,3L13.84,53l-.54-6.34a1.69,1.69,0,0,0-1.12-1.48,1.62,1.62,0,0,0-1.72.43L2,54.53a1.78,1.78,0,0,0-.37,1.81A1.71,1.71,0,0,0,3,57.44l5.61.64,2.59,2.82-1.6,1.53a6.24,6.24,0,0,0-1.89,4.49v6.53H5.17a.5.5,0,0,0-.5.5v4.63a.51.51,0,0,0,.5.5H85.7a.5.5,0,0,0,.5-.5V74a.5.5,0,0,0-.5-.5H84.21a33.82,33.82,0,0,0-2-4.77ZM71.35,23.8a5.38,5.38,0,0,1,1,1.37,37.48,37.48,0,0,0,6.46,9.14,36.34,36.34,0,0,0,14.76,9.27c.09,0,.17.09.26.12l-1.6,1.55a4.53,4.53,0,0,1-6.13.19L69.56,31.23a5,5,0,0,1-1.73-3.72,5.07,5.07,0,0,1,1.59-3.81l.91-.85a6.33,6.33,0,0,1,.56.49ZM44.8,35.1A194.92,194.92,0,0,1,65.37,22.46a4.59,4.59,0,0,1,4-.12l-.67.63a6.1,6.1,0,0,0,.17,9l16.52,14.2A5.53,5.53,0,0,0,92.91,46l1.83-1.77a4.26,4.26,0,0,1,.63.49l.55.53a5.33,5.33,0,0,1,.17,7.4L81.76,67.74a33.47,33.47,0,0,0-2.91-4.46L86.27,56a3.85,3.85,0,0,0-.08-5.49l-8.67-8a3.49,3.49,0,0,0-4.51-.2,2.45,2.45,0,0,1-3.22-.15L62,34.84a3.46,3.46,0,0,0-4.61-.13l-9.43,7.84a3.78,3.78,0,0,0-1.35,2.77,3.83,3.83,0,0,0,1.14,2.88l3.2,3.09H24.78A195.7,195.7,0,0,1,44.8,35.1Zm7.57,16.19-3.94-3.81a2.81,2.81,0,0,1-.84-2.12,2.78,2.78,0,0,1,1-2L58,35.47a2.46,2.46,0,0,1,3.29.1l7.81,7.25a3.47,3.47,0,0,0,4.51.21,2.45,2.45,0,0,1,3.22.15l8.67,8a2.82,2.82,0,0,1,.87,2,2.74,2.74,0,0,1-.82,2l-7.33,7.23a33.51,33.51,0,0,0-3.09-3.27A31,31,0,0,0,59,51.36a5.73,5.73,0,0,0-.85-.07ZM2.55,56a.78.78,0,0,1,.16-.78l8.48-8.94a.62.62,0,0,1,.66-.16.67.67,0,0,1,.45.61L12.84,53,8.65,57.08,3.1,56.44A.67.67,0,0,1,2.55,56Zm7,1.63,3.79-3.71,2.32,2.71L11.9,60.21ZM85.2,78.08H5.67V74.45H85.2ZM8.69,73.45V66.92a5.27,5.27,0,0,1,1.58-3.77l10-9.53a4.65,4.65,0,0,1,3.24-1.33H58.16a4.23,4.23,0,0,1,.7.06A30.06,30.06,0,0,1,74.46,60a32.52,32.52,0,0,1,8.7,13.5Z"/></svg>