<?xml version="1.0" ?><!-- Uploaded to: SVG Repo, www.svgrepo.com, Generator: SVG Repo Mixer Tools -->
<svg width="800px" height="800px" viewBox="0 0 100 100" data-name="Layer 1" id="Layer_1" xmlns="http://www.w3.org/2000/svg"><defs><style>.cls-1{fill:#1d1d1b;}</style></defs><path class="cls-1" d="M62.67,49.26l-1.17-3.2,0-1.92L61.1,27.8a4.71,4.71,0,0,0-1.3-3.1l-1.22-1.29c-1.13-1.19-2.26-2.38-3.4-3.6l3.66-3.36a8.41,8.41,0,0,0,3.1-7.08c-.47-4.73-5.5-8.4-10.95-8h-.06a.5.5,0,0,0,.06,1A5.21,5.21,0,0,1,54.88,4a3.65,3.65,0,0,1,1,2.85c-.24,2.16-2.51,3.79-5.13,3.65a.54.54,0,0,0-.45.25,4.68,4.68,0,0,0-1.18-.25,4.57,4.57,0,0,1-4.34-3.65,3.69,3.69,0,0,1,1-2.85,5.21,5.21,0,0,1,3.89-1.67h.06a.51.51,0,0,0,.44-.47.51.51,0,0,0-.47-.52h0c-5.47-.38-10.48,3.3-10.94,8a8.18,8.18,0,0,0,2.48,6.48h0v0l.41.4.08.08.33-.37-.25.43L44.43,19l-4.67,5.66a4.68,4.68,0,0,0-1.08,2.95V45.48l-1.35,3.59a10.29,10.29,0,0,0-.68,3.67v43.2a2.79,2.79,0,0,0,5.54.13l2.72-47.82V31.35a5,5,0,0,1,1.69-3.7l3.46-3.16,3.47,3.37a5,5,0,0,1,1.56,3.58v17l2.72,47.79a2.47,2.47,0,0,0,.95,1.79,2.94,2.94,0,0,0,1.82.62,3.05,3.05,0,0,0,.52,0A2.67,2.67,0,0,0,63.35,96V52.92A10.23,10.23,0,0,0,62.67,49.26ZM56.88,7a4.68,4.68,0,0,0-1.26-3.64,5.93,5.93,0,0,0-.43-.44C58.28,4,60.65,6.5,61,9.47a7.45,7.45,0,0,1-2.78,6.24l-3.12,2.86a7.86,7.86,0,0,0-1.21-4.8,8.76,8.76,0,0,0-2.19-2.28C54.34,11.25,56.6,9.39,56.88,7ZM39.43,97.48a1.68,1.68,0,0,1-1.78-1.54V52.74a9.22,9.22,0,0,1,.09-1.17,2.73,2.73,0,0,1,1.56.77,2.18,2.18,0,0,1,.63,1.56l-1.18,38a2.64,2.64,0,0,0,.77,1.93,3.15,3.15,0,0,0,1.75.88L41.2,96A1.69,1.69,0,0,1,39.43,97.48Zm1.9-3.76a2,2,0,0,1-1.09-.58,1.64,1.64,0,0,1-.49-1.2l1.18-38A3.18,3.18,0,0,0,40,51.64a3.67,3.67,0,0,0-2.1-1,9.24,9.24,0,0,1,.34-1.17l1.27-3.35h4.39v2.15Zm4.6-66.81a6,6,0,0,0-2,4.44V45.07H39.68V27.61a3.67,3.67,0,0,1,.85-2.32l4.62-5.59,4.19,4.09Zm8.29.24L42.49,15.72l-.09-.08v0h0l-.07-.06-.39-.38a7.18,7.18,0,0,1-2.21-5.71c.29-3,2.65-5.48,5.77-6.56a4,4,0,0,0-.46.46A4.62,4.62,0,0,0,43.79,7c.26,2.35,2.52,4.3,5.25,4.52a3.89,3.89,0,0,1,1.92.7,7.78,7.78,0,0,1,2,2.09,7,7,0,0,1,.9,5.29.76.76,0,0,0,.2.53l3.75,4,1.22,1.29a3.68,3.68,0,0,1,1,2.43l.36,16.34,0,.91H56.09V31.44A6,6,0,0,0,54.22,27.15Zm1.87,21.29V46.07H60.5v.09a.41.41,0,0,0,0,.16l1.2,3.28h0a9.6,9.6,0,0,1,.34,1.16A3.74,3.74,0,0,0,60,51.83a3.16,3.16,0,0,0-.91,2.29l1.17,38a1.66,1.66,0,0,1-.48,1.2,2.18,2.18,0,0,1-1.09.58ZM62.35,96a1.7,1.7,0,0,1-1.42,1.63,1.94,1.94,0,0,1-1.54-.37,1.48,1.48,0,0,1-.59-1.07l-.07-1.29A3.1,3.1,0,0,0,60.48,94a2.65,2.65,0,0,0,.76-1.93l-1.17-38a2.16,2.16,0,0,1,.63-1.57,2.76,2.76,0,0,1,1.56-.77,9.22,9.22,0,0,1,.09,1.17Z"/><path class="cls-1" d="M50.1,13.25a2.83,2.83,0,0,0-3,2.7A3,3,0,0,0,53,16,2.82,2.82,0,0,0,50.1,13.25Zm0,4.39a1.83,1.83,0,0,1-2-1.69A2,2,0,0,1,52,16,1.83,1.83,0,0,1,50.1,17.64Z"/></svg>