<?xml version="1.0" ?><!-- Uploaded to: SVG Repo, www.svgrepo.com, Generator: SVG Repo Mixer Tools -->
<svg width="800px" height="800px" viewBox="0 0 100 100" data-name="Layer 1" id="Layer_1" xmlns="http://www.w3.org/2000/svg"><defs><style>.cls-1{fill:#1d1d1b;}</style></defs><path class="cls-1" d="M66.1,1c-2.35,0-4.24.93-4.6,2.18L37.19,7.41a4,4,0,0,0-8,.59V24.11a3.58,3.58,0,0,0,1,2.47,2.61,2.61,0,0,0-.1.69V79.44a19.84,19.84,0,0,0,20,19.61H61.91a2.85,2.85,0,0,0,2.82-2.31H66.1a.5.5,0,0,0,.5-.5v-2.9h1.46a.51.51,0,0,0,.5-.5V18.58a.51.51,0,0,0-.5-.5H66.6V16.61c2.38-.14,4.18-1.22,4.18-2.59V3.57C70.78,2.1,68.73,1,66.1,1ZM58.6,21.64,36.72,26a3.56,3.56,0,0,0,.54-1.85v-.66l21.22-4.09a5.27,5.27,0,0,0,3.74-3.87,4.3,4.3,0,0,0,1.51.78A6.28,6.28,0,0,1,58.6,21.64ZM37.26,8.41,61.42,4.16v5L37.26,13.43Zm0,6L61.42,10.2V14h0a4.41,4.41,0,0,1-3.15,4.36l-21,4ZM30.22,8a3,3,0,0,1,6,0V24.11a2.64,2.64,0,0,1-.87,1.94,2.92,2.92,0,0,1-.38.29,3.33,3.33,0,0,1-3.89-.26,2.63,2.63,0,0,1-.9-2ZM61.91,98.05H50.15a18.84,18.84,0,0,1-19-18.61V27.31l.12.05a4.48,4.48,0,0,0,.68.29l.2.05a3.7,3.7,0,0,0,.74.13l.16,0,.2,0a5.36,5.36,0,0,0,.7-.06h0a4.42,4.42,0,0,0,.81-.23l.09,0V79.44a15.17,15.17,0,0,0,15.3,15H61.91a1.81,1.81,0,1,1,0,3.62Zm3.69-2.31h-.87a2.85,2.85,0,0,0-2.82-2.31H50.15a14.17,14.17,0,0,1-14.3-14V27.27s0-.08,0-.12l22.95-4.53a7.63,7.63,0,0,0,4.86-3.22V92.84a.5.5,0,0,0,.5.5H65.6Zm2-3.4H64.65V19.08h2.91ZM64.34,18.08a6.94,6.94,0,0,0,.39-1.57,8,8,0,0,0,.87.1v1.47ZM69.78,14c0,.76-1.57,1.61-3.68,1.61s-3.68-.85-3.68-1.61V3.57C62.42,2.8,64,2,66.1,2s3.68.85,3.68,1.62Z"/></svg>