<?xml version="1.0" ?><!-- Uploaded to: SVG Repo, www.svgrepo.com, Generator: SVG Repo Mixer Tools -->
<svg width="800px" height="800px" viewBox="0 0 100 100" data-name="Layer 1" id="Layer_1" xmlns="http://www.w3.org/2000/svg"><defs><style>.cls-1{fill:#1d1d1b;}</style></defs><path class="cls-1" d="M56.18,73.31c-.62-5-1.38-10-2.29-15a.46.46,0,0,0-.16-.28l-.82-16.33,2.91-3.64a5,5,0,0,0,1.07-3.24L55.69,1.48a.51.51,0,0,0-.5-.49H44.66a.5.5,0,0,0-.5.48L43,34.83A4.84,4.84,0,0,0,44,38.07l2.91,3.64-.83,16.64c-.91,5-1.68,10-2.29,15C42.51,84,42.74,87.88,43.65,91.72a33.87,33.87,0,0,0,1.46,4.62A4.18,4.18,0,0,0,49,99h2a4.17,4.17,0,0,0,3.9-2.67,33,33,0,0,0,1.46-4.62C57.26,87.88,57.49,84,56.18,73.31Zm-3.46-15.4H47.13l.16-3.26h5.27ZM44.81,37.44A3.87,3.87,0,0,1,44,34.87L45.14,2H54.7l1.19,32.88A3.87,3.87,0,0,1,55,37.44l-3,3.8a.45.45,0,0,0-.11.34l.61,12.07H47.34L48,41.58a.45.45,0,0,0-.11-.34ZM55.38,91.49A32.92,32.92,0,0,1,54,96a3.18,3.18,0,0,1-3,2H49a3.18,3.18,0,0,1-3-2,33.05,33.05,0,0,1-1.42-4.5c-.88-3.71-1.1-7.53.2-18,.59-4.82,1.33-9.7,2.2-14.52h6c.87,4.82,1.61,9.7,2.2,14.52C56.48,84,56.26,87.77,55.38,91.49Z"/></svg>